<?xml version="1.0" encoding="UTF-8" standalone="no"?>
<!-- Created with Inkscape (http://www.inkscape.org/) -->

<svg
   xmlns:dc="http://purl.org/dc/elements/1.1/"
   xmlns:cc="http://creativecommons.org/ns#"
   xmlns:rdf="http://www.w3.org/1999/02/22-rdf-syntax-ns#"
   xmlns:svg="http://www.w3.org/2000/svg"
   xmlns="http://www.w3.org/2000/svg"
   xmlns:sodipodi="http://sodipodi.sourceforge.net/DTD/sodipodi-0.dtd"
   xmlns:inkscape="http://www.inkscape.org/namespaces/inkscape"
   width="367.95544mm"
   height="383.07773mm"
   viewBox="0 0 367.95545 383.07772"
   version="1.1"
   id="svg8"
   sodipodi:docname="bot.svg"
   inkscape:version="0.92.3 (2405546, 2018-03-11)">
  <defs
     id="defs2" />
  <sodipodi:namedview
     id="base"
     pagecolor="#ffffff"
     bordercolor="#666666"
     borderopacity="1.0"
     inkscape:pageopacity="0.0"
     inkscape:pageshadow="2"
     inkscape:zoom="0.35"
     inkscape:cx="145.35864"
     inkscape:cy="727.48536"
     inkscape:document-units="mm"
     inkscape:current-layer="layer1"
     showgrid="false"
     fit-margin-top="0"
     fit-margin-left="0"
     fit-margin-right="0"
     fit-margin-bottom="0"
     inkscape:window-width="1920"
     inkscape:window-height="1050"
     inkscape:window-x="0"
     inkscape:window-y="0"
     inkscape:window-maximized="1" />
  <metadata
     id="metadata5">
    <rdf:RDF>
      <cc:Work
         rdf:about="">
        <dc:format>image/svg+xml</dc:format>
        <dc:type
           rdf:resource="http://purl.org/dc/dcmitype/StillImage" />
        <dc:title></dc:title>
      </cc:Work>
    </rdf:RDF>
  </metadata>
  <g
     inkscape:label="Layer 1"
     inkscape:groupmode="layer"
     id="layer1"
     transform="translate(102.71543,41.763905)">
    <path
       style="fill:#000000;stroke-width:1.52689421"
       d="m 28.380092,338.7323 c -2.09609,-2.41123 -2.476641,-6.84012 -2.476641,-28.82162 V 283.93809 H 6.6881954 c -18.4217544,0 -19.5920144,-0.19606 -28.3396354,-4.74672 -9.823582,-5.11046 -16.291445,-11.73445 -21.648178,-22.17078 l -3.376271,-6.57788 V 159.30408 68.16543 l 4.439132,-8.343542 C -34.268134,44.844453 -21.039238,36.502399 -3.0048018,35.082485 L 7.9456826,34.220319 v -9.774612 c 0,-9.480851 -0.1565958,-9.8753 -5.2109441,-13.127329 -18.1146865,-11.65518656 -17.6655445,-40.105332 0.7879083,-49.906131 10.8671052,-5.77158 25.0273872,-3.341838 33.1350702,5.685648 7.250671,8.07314 9.32274,20.327957 5.18171,30.645798 -2.002948,4.990457 -11.709974,15.115393 -14.491579,15.115393 -0.794449,0 -1.444397,4.907465 -1.444397,10.905471 v 10.905489 h 55.3698 55.369779 V 23.764557 c 0,-5.998006 -0.64997,-10.905471 -1.44441,-10.905471 -2.78155,0 -12.48864,-10.124936 -14.49155,-15.115393 -5.27295,-13.138135 -0.0662,-29.519368 11.38672,-35.824511 19.01179,-10.466494 40.81012,2.536954 40.81012,24.344643 0,10.0544223 -4.07293,18.3108014 -11.84712,24.015562 -6.44697,4.730824 -6.45597,4.75113 -6.45597,14.56404 v 9.826619 h 7.2108 c 15.52153,0 31.88699,8.172873 39.61641,19.784432 8.7576,13.156035 8.67742,12.101533 8.21656,108.071982 l -0.42207,87.91625 -4.40925,8.28637 c -4.92304,9.25204 -11.28047,15.67606 -20.69844,20.91518 -5.9102,3.28779 -8.44105,3.54728 -39.17188,4.0165 l -32.85339,0.50163 -36.906484,28.70946 C 37.171829,342.44073 33.410552,344.51899 28.380224,338.7323 Z M 110.06893,219.36177 c 13.68632,-2.54039 32.8273,-8.95906 39.66832,-13.30224 5.53733,-3.51552 6.54047,-9.52779 2.38689,-14.30586 -3.37604,-3.88362 -5.41585,-3.66127 -23.21351,2.53082 -18.84183,6.55531 -39.100708,9.3514 -57.613955,7.95176 -15.486739,-1.17087 -33.654737,-5.3048 -44.394954,-10.10151 -8.740455,-3.90367 -12.603044,-4.05886 -16.219403,-0.65173 -4.5109268,4.24999 -3.5280131,10.98635 2.126897,14.57652 6.637578,4.214 26.02289,10.79705 39.028855,13.25371 14.264117,2.69435 43.843873,2.719 58.23086,0.0485 z M 21.960421,128.0325 c 2.168644,-1.77592 3.94303,-4.59753 3.94303,-6.27025 0,-3.80913 6.452828,-6.56308 12.26441,-5.23423 2.981312,0.68169 4.888729,2.53598 6.347497,6.17063 3.712344,9.24966 11.868731,10.7751 16.68627,3.12072 C 66.420687,117.52705 57.861322,102.62902 45.698547,98.835358 27.29958,93.096563 9.8053433,102.31332 8.3081659,118.5343 c -0.6158045,6.67234 -0.2659664,7.94698 2.7926761,10.17737 4.544995,3.31414 6.102024,3.21676 10.859579,-0.67917 z m 90.964009,1.54556 c 1.66166,-0.92581 3.95973,-4.02154 5.10671,-6.87941 1.45875,-3.63465 3.36621,-5.48894 6.34748,-6.17063 5.85458,-1.33866 11.92737,1.34527 12.52389,5.53511 0.26893,1.88812 2.2634,4.80694 4.43237,6.48632 3.52018,2.72558 4.40383,2.82472 8.23066,0.9236 5.89441,-2.92822 6.69908,-12.28528 1.72627,-20.07334 -10.8475,-16.988414 -40.03419,-16.005675 -48.69372,1.63956 -4.290209,8.74211 -4.235533,11.67002 0.30628,16.39814 4.09441,4.26254 5.62493,4.58956 10.02023,2.14065 z M -83.469007,206.1108 c -6.684431,-2.10889 -11.833108,-6.5081 -15.740396,-13.44913 -3.712117,-6.59431 -3.767377,-7.17216 -3.305757,-34.56321 0.45018,-26.71175 0.6222,-28.08854 4.184978,-33.49561 4.865057,-7.38342 12.513108,-11.7062 22.976333,-12.98644 l 8.47547,-1.03701 v 48.51018 48.51018 l -6.360042,-0.13379 c -3.498025,-0.0737 -8.101789,-0.68339 -10.230586,-1.35506 z M 229.42488,159.30593 V 110.5794 l 8.47548,1.03701 c 10.46312,1.28021 18.11123,5.60296 22.97634,12.98632 3.55084,5.38878 3.73638,6.83846 4.18696,32.71121 0.4391,25.21414 0.24688,27.55541 -2.80014,34.10817 -4.43881,9.5458 -12.14805,14.65721 -23.75999,15.75339 l -9.07865,0.85701 z"
       id="path880"
       inkscape:connector-curvature="0" />
  </g>
</svg>
